<svg width="1030" height="1030" viewBox="0 0 1030 1030" fill="none" xmlns="http://www.w3.org/2000/svg">
<g clip-path="url(#clip0_14_2)">
<path d="M17.0996 703.9C17.0996 760.631 63.3691 806.9 120.1 806.9H137.199C185.279 806.9 223.1 844.721 223.1 892.801V703.9H17.0996Z" fill="#FDCC00"/>
<path d="M17.0996 412C17.0996 468.73 63.3691 515 120.1 515H137.199C185.279 515 223.1 552.82 223.1 600.9V412H17.0996Z" fill="#FDCC00"/>
<path d="M17.0996 120.1C17.0996 176.83 63.3691 223.1 120.1 223.1H137.199C185.279 223.1 223.1 260.92 223.1 309V120.1H17.0996Z" fill="#FDCC00"/>
<path d="M188.9 223.1H171.801C115.07 223.1 68.8008 176.83 68.8008 120.1H17.0996C17.0996 176.83 63.3691 223.1 120.1 223.1H137.199H188.9Z" fill="white"/>
<path d="M188.9 515H171.801C115.07 515 68.8008 468.73 68.8008 412H17.0996C17.0996 468.73 63.3691 515 120.1 515H137.199H188.9Z" fill="white"/>
<path d="M188.9 806.9H171.801C115.07 806.9 68.8008 760.631 68.8008 703.9H17.0996C17.0996 760.631 63.3691 806.9 120.1 806.9H137.199H188.9Z" fill="white"/>
<path d="M635.1 188.9V274.801H909.699V549.4H635.1V635.301H909.699V1012.9H1012.7V635.1V549.199V274.6V247.039C1012.7 214.449 986.949 188.699 954.359 188.699H635.1V188.9Z" fill="#FDCC00"/>
<path d="M954.561 188.9H903.061C935.65 188.9 961.4 214.65 961.4 247.24V274.801V549.4V635.301V1012.9H1012.9V635.1V549.199V274.6V247.039C1012.9 214.65 987.15 188.9 954.561 188.9Z" fill="#FFA800"/>
<path d="M597.48 1012.9H262.73C240.4 1012.9 223.301 995.801 223.301 973.471V54.9199C223.301 34.4004 240.4 17.0996 262.73 17.0996H597.48C618 17.0996 635.301 34.1992 635.301 54.9199V973.27C635.1 995.6 618 1012.9 597.48 1012.9Z" fill="#FFE100"/>
<path d="M532 240C532 296.73 485.73 343 429 343C372.27 343 326 296.73 326 240C326 183.27 372.27 137 429 137C485.73 137 532 183.27 532 240Z" fill="black"/>
<path d="M411.75 137C403.1 137 394.65 138.811 386 140.42C430.66 152.49 463.25 191.92 463.25 240C463.25 288.08 430.66 327.51 386 339.58C394.65 341.391 403.1 343 411.75 343C468.48 343 514.75 296.73 514.75 240C514.75 183.27 468.48 137 411.75 137Z" fill="black"/>
<path d="M532.1 806.9C532.1 863.631 485.83 909.9 429.1 909.9C372.369 909.9 326.1 863.631 326.1 806.9C326.1 750.17 372.369 703.9 429.1 703.9C485.83 703.9 532.1 750.17 532.1 806.9Z" fill="#01793C"/>
<path d="M429.1 703.9C420.449 703.9 412 705.711 403.35 707.32C448.01 719.391 480.6 758.82 480.6 806.9C480.6 854.98 448.01 894.41 403.35 906.48C412 908.291 420.449 909.9 429.1 909.9C485.83 909.9 532.1 863.631 532.1 806.9C532.1 750.17 485.83 703.9 429.1 703.9Z" fill="#165937"/>
<path d="M429.1 360.199C362.109 360.199 309 306.889 309 240.1C309 173.109 362.311 120 429.1 120C495.889 120 549.199 173.311 549.199 240.1C549.4 307.09 496.09 360.199 429.1 360.199ZM429.1 154.199C381.02 154.199 343.199 192.02 343.199 240.1C343.199 288.18 381.02 326 429.1 326C477.18 326 515 288.18 515 240.1C515 192.02 477.18 154.199 429.1 154.199Z" fill="black"/>
<path d="M429.1 927C362.109 927 309 873.689 309 806.9C309 740.111 362.311 686.801 429.1 686.801C495.889 686.801 549.199 740.111 549.199 806.9C549.199 873.689 496.09 927 429.1 927ZM429.1 721C381.02 721 343.199 758.82 343.199 806.9C343.199 854.98 381.02 892.801 429.1 892.801C477.18 892.801 515 854.98 515 806.9C515 758.82 477.18 721 429.1 721Z" fill="black"/>
<path d="M240.4 309H206C206 271.18 175.02 240.4 137.4 240.4H120.301C53.3105 240.4 0 187.09 0 120.1V103H240.4V309ZM36.0098 137.4C44.6602 176.83 78.8594 206 120.1 206H137.199C162.949 206 186.889 216.26 205.799 231.75V137.4H36.0098Z" fill="black"/>
<path d="M240.4 600.9H206C206 563.08 175.02 532.301 137.4 532.301H120.301C53.3105 532.1 0 478.99 0 412V394.9H240.4V600.9ZM36.0098 429.1C44.6602 468.529 78.8594 497.699 120.1 497.699H137.199C162.949 497.699 186.889 507.959 205.799 523.449V429.1H36.0098Z" fill="black"/>
<path d="M240.4 892.6H206C206 854.779 175.02 824 137.4 824H120.301C53.3105 824 0 770.689 0 703.9V686.801H240.4V892.6ZM36.0098 721C44.6602 760.43 78.8594 789.6 120.1 789.6H137.199C162.949 789.6 186.889 799.859 205.799 815.35V721H36.0098Z" fill="black"/>
<path d="M954.561 171.6H652.4V54.9199C652.4 25.75 626.65 0 597.48 0H262.73C231.75 0 206 25.75 206 54.9199V973.27C206 1004.25 231.75 1030 262.73 1030H597.48C626.65 1030 652.4 1004.25 652.4 973.27V652.4H892.801V1012.9C892.801 1023.16 899.641 1030 909.9 1030H1012.9C1023.16 1030 1030 1023.16 1030 1012.9V247.24C1030 206 997.41 171.6 954.561 171.6ZM652.4 291.9H892.801V532.301H652.4V291.9ZM619.811 973.27C619.811 985.34 609.551 995.6 597.48 995.6H262.73C250.66 995.6 240.4 985.34 240.4 973.27V54.9199C240.4 44.6602 250.66 34.4004 262.73 34.4004H597.48C607.74 34.4004 618 44.6602 619.811 54.9199V973.27ZM995.6 995.6H927V635.1C927 624.84 920.16 618 909.9 618H652.4V566.5H909.9C920.16 566.5 927 559.66 927 549.4V274.6C927 264.34 920.16 257.5 909.9 257.5H652.4V206H954.561C976.891 206 995.801 224.91 995.801 247.24V995.6H995.6Z" fill="black"/>
</g>
<defs>
<clipPath id="clip0_14_2">
<rect width="1030" height="1030" fill="white"/>
</clipPath>
</defs>
</svg>
