<svg width="400" height="400" viewBox="0 0 400 400" fill="none" xmlns="http://www.w3.org/2000/svg">
<g clip-path="url(#clip0_5_32)">
<path d="M6.64062 273.359C6.64062 295.391 24.6094 313.359 46.6406 313.359H53.2812C71.9531 313.359 86.6406 328.047 86.6406 346.719V273.359H6.64062Z" fill="#FDCC00"/>
<path d="M6.64062 160C6.64062 182.031 24.6094 200 46.6406 200H53.2812C71.9531 200 86.6406 214.688 86.6406 233.359V160H6.64062Z" fill="#FDCC00"/>
<path d="M6.64062 46.6406C6.64062 68.6719 24.6094 86.6406 46.6406 86.6406H53.2812C71.9531 86.6406 86.6406 101.328 86.6406 120V46.6406H6.64062Z" fill="#FDCC00"/>
<path d="M73.3594 86.6406H66.7188C44.6875 86.6406 26.7188 68.6719 26.7188 46.6406H6.64062C6.64062 68.6719 24.6094 86.6406 46.6406 86.6406H53.2812H73.3594Z" fill="white"/>
<path d="M73.3594 200H66.7188C44.6875 200 26.7188 182.031 26.7188 160H6.64062C6.64062 182.031 24.6094 200 46.6406 200H53.2812H73.3594Z" fill="white"/>
<path d="M73.3594 313.359H66.7188C44.6875 313.359 26.7188 295.391 26.7188 273.359H6.64062C6.64062 295.391 24.6094 313.359 46.6406 313.359H53.2812H73.3594Z" fill="white"/>
<path d="M246.641 73.3594V106.719H353.281V213.359H246.641V246.719H353.281V393.359H393.281V246.641V213.281V106.641V95.9375C393.281 83.2812 383.281 73.2812 370.625 73.2812H246.641V73.3594Z" fill="#FDCC00"/>
<path d="M370.703 73.3594H350.703C363.359 73.3594 373.359 83.3594 373.359 96.0156V106.719V213.359V246.719V393.359H393.359V246.641V213.281V106.641V95.9375C393.359 83.3594 383.359 73.3594 370.703 73.3594Z" fill="#FFA800"/>
<path d="M232.031 393.359H102.031C93.3594 393.359 86.7188 386.719 86.7188 378.047V21.3281C86.7188 13.3594 93.3594 6.64062 102.031 6.64062H232.031C240 6.64062 246.719 13.2812 246.719 21.3281V377.969C246.641 386.641 240 393.359 232.031 393.359Z" fill="#FFE100"/>
<path d="M206.641 86.6406C206.641 108.672 188.672 126.641 166.641 126.641C144.609 126.641 126.641 108.672 126.641 86.6406C126.641 64.6094 144.609 46.6406 166.641 46.6406C188.672 46.6406 206.641 64.6875 206.641 86.6406Z" fill="black"/>
<path d="M166.641 46.6406C163.281 46.6406 160 47.3438 156.641 47.9688C173.984 52.6563 186.641 67.9688 186.641 86.6406C186.641 105.312 173.984 120.625 156.641 125.312C160 126.016 163.281 126.641 166.641 126.641C188.672 126.641 206.641 108.672 206.641 86.6406C206.641 64.6094 188.672 46.6406 166.641 46.6406Z" fill="black"/>
<path d="M206.641 200C206.641 222.031 188.672 240 166.641 240C144.609 240 126.641 222.031 126.641 200C126.641 177.969 144.609 160 166.641 160C188.672 160 206.641 177.969 206.641 200Z" fill="#FFA800"/>
<path d="M166.641 160C163.281 160 160 160.703 156.641 161.328C173.984 166.016 186.641 181.328 186.641 200C186.641 218.672 173.984 233.984 156.641 238.672C160 239.375 163.281 240 166.641 240C188.672 240 206.641 222.031 206.641 200C206.641 177.969 188.672 160 166.641 160Z" fill="#FF8800"/>
<path d="M206.641 313.359C206.641 335.391 188.672 353.359 166.641 353.359C144.609 353.359 126.641 335.391 126.641 313.359C126.641 291.328 144.609 273.359 166.641 273.359C188.672 273.359 206.641 291.328 206.641 313.359Z" fill="black"/>
<path d="M166.641 273.359C163.281 273.359 160 274.063 156.641 274.688C173.984 279.375 186.641 294.688 186.641 313.359C186.641 332.031 173.984 347.344 156.641 352.031C160 352.734 163.281 353.359 166.641 353.359C188.672 353.359 206.641 335.391 206.641 313.359C206.641 291.328 188.672 273.359 166.641 273.359Z" fill="black"/>
<path d="M166.641 133.359C140.625 133.359 120 112.656 120 86.7188C120 60.7812 140.703 40.0781 166.641 40.0781C192.578 40.0781 213.281 60.7812 213.281 86.7188C213.281 112.656 192.656 133.359 166.641 133.359ZM166.641 53.3594C147.969 53.3594 133.281 68.0469 133.281 86.7188C133.281 105.391 147.969 120.078 166.641 120.078C185.312 120.078 200 105.391 200 86.7188C200 68.0469 185.312 53.3594 166.641 53.3594Z" fill="black"/>
<path d="M166.641 246.641C140.625 246.641 120 225.938 120 200C120 173.984 140.703 153.359 166.641 153.359C192.578 153.359 213.281 174.062 213.281 200C213.359 226.016 192.656 246.641 166.641 246.641ZM166.641 166.641C147.969 166.641 133.281 181.328 133.281 200C133.281 218.672 147.969 233.359 166.641 233.359C185.312 233.359 200 218.672 200 200C200 181.328 185.312 166.641 166.641 166.641Z" fill="black"/>
<path d="M166.641 360C140.625 360 120 339.297 120 313.359C120 287.422 140.703 266.719 166.641 266.719C192.578 266.719 213.281 287.422 213.281 313.359C213.281 339.297 192.656 360 166.641 360ZM166.641 280C147.969 280 133.281 294.688 133.281 313.359C133.281 332.031 147.969 346.719 166.641 346.719C185.312 346.719 200 332.031 200 313.359C200 294.688 185.312 280 166.641 280Z" fill="black"/>
<path d="M93.3594 120H80C80 105.313 67.9688 93.3594 53.3594 93.3594H46.7188C20.7031 93.3594 0 72.6562 0 46.6406V40H93.3594V120ZM13.9844 53.3594C17.3438 68.6719 30.625 80 46.6406 80H53.2812C63.2812 80 72.5781 83.9844 79.9219 90V53.3594H13.9844Z" fill="black"/>
<path d="M93.3594 233.359H80C80 218.672 67.9688 206.719 53.3594 206.719H46.7188C20.7031 206.641 0 186.016 0 160V153.359H93.3594V233.359ZM13.9844 166.641C17.3438 181.953 30.625 193.281 46.6406 193.281H53.2812C63.2812 193.281 72.5781 197.266 79.9219 203.281V166.641H13.9844Z" fill="black"/>
<path d="M93.3594 346.641H80C80 331.953 67.9688 320 53.3594 320H46.7188C20.7031 320 0 299.297 0 273.359V266.719H93.3594V346.641ZM13.9844 280C17.3438 295.312 30.625 306.641 46.6406 306.641H53.2812C63.2812 306.641 72.5781 310.625 79.9219 316.641V280H13.9844Z" fill="black"/>
<path d="M370.703 66.6406H253.359V21.3281C253.359 10 243.359 0 232.031 0H102.031C90 0 80 10 80 21.3281V377.969C80 390 90 400 102.031 400H232.031C243.359 400 253.359 390 253.359 377.969V253.359H346.719V393.359C346.719 397.344 349.375 400 353.359 400H393.359C397.344 400 400 397.344 400 393.359V96.0156C400 80 387.344 66.6406 370.703 66.6406ZM253.359 113.359H346.719V206.719H253.359V113.359ZM240.703 377.969C240.703 382.656 236.719 386.641 232.031 386.641H102.031C97.3438 386.641 93.3594 382.656 93.3594 377.969V21.3281C93.3594 17.3438 97.3438 13.3594 102.031 13.3594H232.031C236.016 13.3594 240 17.3438 240.703 21.3281V377.969ZM386.641 386.641H360V246.641C360 242.656 357.344 240 353.359 240H253.359V220H353.359C357.344 220 360 217.344 360 213.359V106.641C360 102.656 357.344 100 353.359 100H253.359V80H370.703C379.375 80 386.719 87.3438 386.719 96.0156V386.641H386.641Z" fill="black"/>
</g>
<defs>
<clipPath id="clip0_5_32">
<rect width="400" height="400" fill="white"/>
</clipPath>
</defs>
</svg>
