<svg width="100" height="123" viewBox="0 0 100 123" fill="none" xmlns="http://www.w3.org/2000/svg">
<g clip-path="url(#clip0_21_38)" filter="url(#filter0_b_21_38)">
<path d="M50 100C77.6142 100 100 77.6142 100 50C100 22.3858 77.6142 0 50 0C22.3858 0 0 22.3858 0 50C0 77.6142 22.3858 100 50 100Z" fill="#BA2127"/>
<g filter="url(#filter1_d_21_38)">
<path d="M25.5641 25.5883H39.1287V41.9578C37.3033 33.9656 28.8725 35.2281 27.4264 28.2756C27.2627 27.4859 25.4477 27.4396 25.5641 25.5883ZM25.5641 69.4715H39.1287V85.841C37.3033 77.8488 28.8725 79.1113 27.4264 72.1588C27.2627 71.3681 25.4477 71.3228 25.5641 69.4715ZM73.6971 69.4715H60.1324V85.841C61.9578 77.8488 70.3887 79.1113 71.8348 72.1588C71.9985 71.3681 73.8139 71.3228 73.6971 69.4715ZM25.5641 47.5304H39.1287V63.9C37.3033 55.9078 28.8725 57.1703 27.4264 50.2177C27.2627 49.4279 25.4477 49.3816 25.5641 47.5304ZM73.6971 47.5304H60.1324V63.9C61.9578 55.9078 70.3887 57.1703 71.8348 50.2177C71.9985 49.4279 73.8139 49.3816 73.6971 47.5304ZM73.6971 25.5883H60.1324V41.9578C61.9578 33.9656 70.3887 35.2281 71.8348 28.2756C71.9985 27.4859 73.8139 27.4396 73.6971 25.5883Z" fill="white"/>
</g>
<g filter="url(#filter2_d_21_38)">
<path d="M47.4312 19.5353H51.8308C58.6511 19.5353 64.231 25.1162 64.231 31.9355V83.8914C64.231 85.3762 63.0166 86.5906 61.5318 86.5906H37.7302C36.2455 86.5906 35.031 85.3762 35.031 83.8914V31.9355C35.031 25.1152 40.6119 19.5353 47.4312 19.5353Z" fill="white"/>
</g>
<path d="M50.0776 26C56.1954 26 61.1553 30.9598 61.1553 37.0776C61.1553 43.1954 56.1954 48.1553 50.0776 48.1553C43.9598 48.1553 39 43.1954 39 37.0776C39 30.9598 43.9593 26 50.0776 26Z" fill="#ECF0F1"/>
<path d="M50.0775 28.435C54.8504 28.435 58.7212 32.3045 58.7212 37.0774C58.7212 41.8502 54.8517 45.7197 50.0775 45.7197C45.3047 45.7197 41.4352 41.8502 41.4352 37.0774C41.4352 32.3045 45.3044 28.435 50.0775 28.435Z" fill="#BA2127"/>
<g filter="url(#filter3_i_21_38)">
<path d="M50.1409 61C56.2936 61 61.2818 65.9881 61.2818 72.1396C61.2818 78.2936 56.2936 83.2804 50.1409 83.2804C43.9881 83.2804 39 78.2936 39 72.1396C38.9997 65.9868 43.9876 61 50.1409 61Z" fill="#ECF0F1"/>
</g>
<path d="M50.1409 63.4479C54.9411 63.4479 58.8339 67.3395 58.8339 72.1409C58.8339 76.941 54.9424 80.8326 50.1409 80.8326C45.3408 80.8326 41.4492 76.941 41.4492 72.1409C41.4492 67.3408 45.3405 63.4479 50.1409 63.4479Z" fill="#BA2127" fill-opacity="0.05"/>
<g filter="url(#filter4_d_21_38)">
<path d="M49.0069 5.71699H52.5383H73.2317C76.2807 7.32031 79.145 9.22539 81.7823 11.3986H53.1528C52.8149 11.3986 52.5381 11.6754 52.5381 12.0133V19.626H46.9592V10.5184V7.76543C46.9592 6.63691 47.8784 5.71699 49.0069 5.71699Z" fill="#ECF0F1"/>
</g>
<path d="M81.7809 11.3987H53.1518C52.8139 11.3987 52.5371 11.6754 52.5371 12.0133V19.626H51.4791V11.4727C51.4791 10.909 51.9401 10.4479 52.5039 10.4479H80.5877C80.9905 10.76 81.3885 11.0746 81.7809 11.3987Z" fill="#C9CACC"/>
</g>
<path d="M42.1668 108.6H43.7268V117H42.1668V108.6ZM37.8228 117H36.2628V108.6H37.8228V117ZM42.2868 113.4H37.6908V112.068H42.2868V113.4ZM45.8336 117V110.592H47.3336V117H45.8336ZM46.5896 109.536C46.3096 109.536 46.0776 109.448 45.8936 109.272C45.7176 109.096 45.6296 108.884 45.6296 108.636C45.6296 108.38 45.7176 108.168 45.8936 108C46.0776 107.824 46.3096 107.736 46.5896 107.736C46.8696 107.736 47.0976 107.82 47.2736 107.988C47.4576 108.148 47.5496 108.352 47.5496 108.6C47.5496 108.864 47.4616 109.088 47.2856 109.272C47.1096 109.448 46.8776 109.536 46.5896 109.536ZM52.2064 119.412C51.6144 119.412 51.0344 119.332 50.4664 119.172C49.9064 119.02 49.4464 118.796 49.0864 118.5L49.7584 117.372C50.0384 117.604 50.3904 117.788 50.8144 117.924C51.2464 118.068 51.6824 118.14 52.1224 118.14C52.8264 118.14 53.3424 117.976 53.6704 117.648C53.9984 117.328 54.1624 116.844 54.1624 116.196V115.056L54.2824 113.604L54.2344 112.152V110.592H55.6624V116.028C55.6624 117.188 55.3664 118.04 54.7744 118.584C54.1824 119.136 53.3264 119.412 52.2064 119.412ZM52.0144 116.712C51.4064 116.712 50.8544 116.584 50.3584 116.328C49.8704 116.064 49.4824 115.7 49.1944 115.236C48.9144 114.772 48.7744 114.228 48.7744 113.604C48.7744 112.988 48.9144 112.448 49.1944 111.984C49.4824 111.52 49.8704 111.16 50.3584 110.904C50.8544 110.648 51.4064 110.52 52.0144 110.52C52.5584 110.52 53.0464 110.628 53.4784 110.844C53.9104 111.06 54.2544 111.396 54.5104 111.852C54.7744 112.308 54.9064 112.892 54.9064 113.604C54.9064 114.316 54.7744 114.904 54.5104 115.368C54.2544 115.824 53.9104 116.164 53.4784 116.388C53.0464 116.604 52.5584 116.712 52.0144 116.712ZM52.2424 115.44C52.6184 115.44 52.9544 115.364 53.2504 115.212C53.5464 115.052 53.7744 114.836 53.9344 114.564C54.1024 114.284 54.1864 113.964 54.1864 113.604C54.1864 113.244 54.1024 112.928 53.9344 112.656C53.7744 112.376 53.5464 112.164 53.2504 112.02C52.9544 111.868 52.6184 111.792 52.2424 111.792C51.8664 111.792 51.5264 111.868 51.2224 112.02C50.9264 112.164 50.6944 112.376 50.5264 112.656C50.3664 112.928 50.2864 113.244 50.2864 113.604C50.2864 113.964 50.3664 114.284 50.5264 114.564C50.6944 114.836 50.9264 115.052 51.2224 115.212C51.5264 115.364 51.8664 115.44 52.2424 115.44ZM61.2704 110.52C61.7824 110.52 62.2384 110.62 62.6384 110.82C63.0464 111.02 63.3664 111.328 63.5984 111.744C63.8304 112.152 63.9464 112.68 63.9464 113.328V117H62.4464V113.52C62.4464 112.952 62.3104 112.528 62.0384 112.248C61.7744 111.968 61.4024 111.828 60.9224 111.828C60.5704 111.828 60.2584 111.9 59.9864 112.044C59.7144 112.188 59.5024 112.404 59.3504 112.692C59.2064 112.972 59.1344 113.328 59.1344 113.76V117H57.6344V108.096H59.1344V112.32L58.8104 111.792C59.0344 111.384 59.3584 111.072 59.7824 110.856C60.2144 110.632 60.7104 110.52 61.2704 110.52Z" fill="black"/>
<defs>
<filter id="filter0_b_21_38" x="-25" y="-25" width="150" height="150" filterUnits="userSpaceOnUse" color-interpolation-filters="sRGB">
<feFlood flood-opacity="0" result="BackgroundImageFix"/>
<feGaussianBlur in="BackgroundImageFix" stdDeviation="12.5"/>
<feComposite in2="SourceAlpha" operator="in" result="effect1_backgroundBlur_21_38"/>
<feBlend mode="normal" in="SourceGraphic" in2="effect1_backgroundBlur_21_38" result="shape"/>
</filter>
<filter id="filter1_d_21_38" x="21.5587" y="25.5883" width="56.1438" height="68.2527" filterUnits="userSpaceOnUse" color-interpolation-filters="sRGB">
<feFlood flood-opacity="0" result="BackgroundImageFix"/>
<feColorMatrix in="SourceAlpha" type="matrix" values="0 0 0 0 0 0 0 0 0 0 0 0 0 0 0 0 0 0 127 0" result="hardAlpha"/>
<feOffset dy="4"/>
<feGaussianBlur stdDeviation="2"/>
<feComposite in2="hardAlpha" operator="out"/>
<feColorMatrix type="matrix" values="0 0 0 0 0 0 0 0 0 0 0 0 0 0 0 0 0 0 0.25 0"/>
<feBlend mode="normal" in2="BackgroundImageFix" result="effect1_dropShadow_21_38"/>
<feBlend mode="normal" in="SourceGraphic" in2="effect1_dropShadow_21_38" result="shape"/>
</filter>
<filter id="filter2_d_21_38" x="31.031" y="19.5353" width="37.2" height="75.0553" filterUnits="userSpaceOnUse" color-interpolation-filters="sRGB">
<feFlood flood-opacity="0" result="BackgroundImageFix"/>
<feColorMatrix in="SourceAlpha" type="matrix" values="0 0 0 0 0 0 0 0 0 0 0 0 0 0 0 0 0 0 127 0" result="hardAlpha"/>
<feOffset dy="4"/>
<feGaussianBlur stdDeviation="2"/>
<feComposite in2="hardAlpha" operator="out"/>
<feColorMatrix type="matrix" values="0 0 0 0 0 0 0 0 0 0 0 0 0 0 0 0 0 0 0.25 0"/>
<feBlend mode="normal" in2="BackgroundImageFix" result="effect1_dropShadow_21_38"/>
<feBlend mode="normal" in="SourceGraphic" in2="effect1_dropShadow_21_38" result="shape"/>
</filter>
<filter id="filter3_i_21_38" x="39" y="61" width="22.2817" height="27.6583" filterUnits="userSpaceOnUse" color-interpolation-filters="sRGB">
<feFlood flood-opacity="0" result="BackgroundImageFix"/>
<feBlend mode="normal" in="SourceGraphic" in2="BackgroundImageFix" result="shape"/>
<feColorMatrix in="SourceAlpha" type="matrix" values="0 0 0 0 0 0 0 0 0 0 0 0 0 0 0 0 0 0 127 0" result="hardAlpha"/>
<feOffset dy="5.37783"/>
<feGaussianBlur stdDeviation="2.68891"/>
<feComposite in2="hardAlpha" operator="arithmetic" k2="-1" k3="1"/>
<feColorMatrix type="matrix" values="0 0 0 0 0 0 0 0 0 0 0 0 0 0 0 0 0 0 0.25 0"/>
<feBlend mode="normal" in2="shape" result="effect1_innerShadow_21_38"/>
</filter>
<filter id="filter4_d_21_38" x="42.9592" y="5.71698" width="42.823" height="21.909" filterUnits="userSpaceOnUse" color-interpolation-filters="sRGB">
<feFlood flood-opacity="0" result="BackgroundImageFix"/>
<feColorMatrix in="SourceAlpha" type="matrix" values="0 0 0 0 0 0 0 0 0 0 0 0 0 0 0 0 0 0 127 0" result="hardAlpha"/>
<feOffset dy="4"/>
<feGaussianBlur stdDeviation="2"/>
<feComposite in2="hardAlpha" operator="out"/>
<feColorMatrix type="matrix" values="0 0 0 0 0 0 0 0 0 0 0 0 0 0 0 0 0 0 0.25 0"/>
<feBlend mode="normal" in2="BackgroundImageFix" result="effect1_dropShadow_21_38"/>
<feBlend mode="normal" in="SourceGraphic" in2="effect1_dropShadow_21_38" result="shape"/>
</filter>
<clipPath id="clip0_21_38">
<rect width="100" height="100" fill="white"/>
</clipPath>
</defs>
</svg>
