<svg width="100" height="123" viewBox="0 0 100 123" fill="none" xmlns="http://www.w3.org/2000/svg">
<g clip-path="url(#clip0_6_183)" filter="url(#filter0_b_6_183)">
<path d="M50 100C77.6142 100 100 77.6142 100 50C100 22.3858 77.6142 0 50 0C22.3858 0 0 22.3858 0 50C0 77.6142 22.3858 100 50 100Z" fill="#BA2127"/>
<g filter="url(#filter1_d_6_183)">
<path d="M25.5641 25.5883H39.1287V41.9578C37.3033 33.9656 28.8725 35.2281 27.4264 28.2756C27.2627 27.4859 25.4477 27.4396 25.5641 25.5883ZM25.5641 69.4715H39.1287V85.841C37.3033 77.8488 28.8725 79.1113 27.4264 72.1588C27.2627 71.3681 25.4477 71.3228 25.5641 69.4715ZM73.6971 69.4715H60.1324V85.841C61.9578 77.8488 70.3887 79.1113 71.8348 72.1588C71.9985 71.3681 73.8139 71.3228 73.6971 69.4715ZM25.5641 47.5304H39.1287V63.9C37.3033 55.9078 28.8725 57.1703 27.4264 50.2177C27.2627 49.4279 25.4477 49.3816 25.5641 47.5304ZM73.6971 47.5304H60.1324V63.9C61.9578 55.9078 70.3887 57.1703 71.8348 50.2177C71.9985 49.4279 73.8139 49.3816 73.6971 47.5304ZM73.6971 25.5883H60.1324V41.9578C61.9578 33.9656 70.3887 35.2281 71.8348 28.2756C71.9985 27.4859 73.8139 27.4396 73.6971 25.5883Z" fill="#ECECEC"/>
</g>
<g filter="url(#filter2_d_6_183)">
<path d="M47.4312 19.5353H51.8308C58.6511 19.5353 64.231 25.1162 64.231 31.9355V83.8914C64.231 85.3762 63.0166 86.5906 61.5318 86.5906H37.7302C36.2455 86.5906 35.031 85.3762 35.031 83.8914V31.9355C35.031 25.1152 40.6119 19.5353 47.4312 19.5353Z" fill="white"/>
</g>
<path d="M49.6299 44.7764C54.2063 44.7764 57.9164 48.4865 57.9164 53.0629C57.9164 57.6393 54.2063 61.3494 49.6299 61.3494C45.0535 61.3494 41.3434 57.6393 41.3434 53.0629C41.3434 48.4865 45.0531 44.7764 49.6299 44.7764Z" fill="#ECF0F1"/>
<g filter="url(#filter3_i_6_183)">
<path d="M49.6299 22.8447C54.2063 22.8447 57.9164 26.5549 57.9164 31.1313C57.9164 35.7076 54.2063 39.4178 49.6299 39.4178C45.0535 39.4178 41.3434 35.7076 41.3434 31.1313C41.3434 26.5549 45.0531 22.8447 49.6299 22.8447Z" fill="#ECF0F1"/>
</g>
<g filter="url(#filter4_d_6_183)">
<path d="M49.6299 24.6662C53.2002 24.6662 56.0957 27.5607 56.0957 31.131C56.0957 34.7014 53.2012 37.5959 49.6299 37.5959C46.0596 37.5959 43.165 34.7014 43.165 31.131C43.165 27.5607 46.0594 24.6662 49.6299 24.6662Z" fill="#BA2127"/>
</g>
<path d="M49.6299 46.5973C53.2002 46.5973 56.0957 49.4918 56.0957 53.0631C56.0957 56.6334 53.2012 59.528 49.6299 59.528C46.0596 59.528 43.165 56.6334 43.165 53.0631C43.1648 49.4928 46.0594 46.5973 49.6299 46.5973Z" fill="#E3B313" fill-opacity="0.1"/>
<path d="M49.6299 66.7084C54.2063 66.7084 57.9164 70.4185 57.9164 74.9939C57.9164 79.5713 54.2063 83.2804 49.6299 83.2804C45.0535 83.2804 41.3434 79.5713 41.3434 74.9939C41.3432 70.4176 45.0531 66.7084 49.6299 66.7084Z" fill="#ECF0F1"/>
<path d="M49.6299 68.5291C53.2002 68.5291 56.0957 71.4236 56.0957 74.9949C56.0957 78.5652 53.2012 81.4598 49.6299 81.4598C46.0596 81.4598 43.165 78.5652 43.165 74.9949C43.165 71.4246 46.0594 68.5291 49.6299 68.5291Z" fill="#11C736" fill-opacity="0.1"/>
<g filter="url(#filter5_d_6_183)">
<path d="M49.0069 5.71699H52.5383H73.2317C76.2807 7.32031 79.145 9.22539 81.7823 11.3986H53.1528C52.8149 11.3986 52.5381 11.6754 52.5381 12.0133V19.626H46.9592V10.5184V7.76543C46.9592 6.63691 47.8784 5.71699 49.0069 5.71699Z" fill="#ECF0F1"/>
</g>
<path d="M81.7809 11.3987H53.1518C52.8139 11.3987 52.5371 11.6754 52.5371 12.0133V19.626H51.4791V11.4727C51.4791 10.909 51.9401 10.4479 52.5039 10.4479H80.5877C80.9905 10.76 81.3885 11.0746 81.7809 11.3987Z" fill="#C9CACC"/>
<path d="M64.2301 41.883H35.0293V42.2514H64.2301V41.883Z" fill="#ECF0F1"/>
<path d="M64.2046 63.5887H35.0583V63.957H64.2046V63.5887Z" fill="#ECF0F1"/>
</g>
<path d="M42.1668 108.6H43.7268V117H42.1668V108.6ZM37.8228 117H36.2628V108.6H37.8228V117ZM42.2868 113.4H37.6908V112.068H42.2868V113.4ZM45.8336 117V110.592H47.3336V117H45.8336ZM46.5896 109.536C46.3096 109.536 46.0776 109.448 45.8936 109.272C45.7176 109.096 45.6296 108.884 45.6296 108.636C45.6296 108.38 45.7176 108.168 45.8936 108C46.0776 107.824 46.3096 107.736 46.5896 107.736C46.8696 107.736 47.0976 107.82 47.2736 107.988C47.4576 108.148 47.5496 108.352 47.5496 108.6C47.5496 108.864 47.4616 109.088 47.2856 109.272C47.1096 109.448 46.8776 109.536 46.5896 109.536ZM52.2064 119.412C51.6144 119.412 51.0344 119.332 50.4664 119.172C49.9064 119.02 49.4464 118.796 49.0864 118.5L49.7584 117.372C50.0384 117.604 50.3904 117.788 50.8144 117.924C51.2464 118.068 51.6824 118.14 52.1224 118.14C52.8264 118.14 53.3424 117.976 53.6704 117.648C53.9984 117.328 54.1624 116.844 54.1624 116.196V115.056L54.2824 113.604L54.2344 112.152V110.592H55.6624V116.028C55.6624 117.188 55.3664 118.04 54.7744 118.584C54.1824 119.136 53.3264 119.412 52.2064 119.412ZM52.0144 116.712C51.4064 116.712 50.8544 116.584 50.3584 116.328C49.8704 116.064 49.4824 115.7 49.1944 115.236C48.9144 114.772 48.7744 114.228 48.7744 113.604C48.7744 112.988 48.9144 112.448 49.1944 111.984C49.4824 111.52 49.8704 111.16 50.3584 110.904C50.8544 110.648 51.4064 110.52 52.0144 110.52C52.5584 110.52 53.0464 110.628 53.4784 110.844C53.9104 111.06 54.2544 111.396 54.5104 111.852C54.7744 112.308 54.9064 112.892 54.9064 113.604C54.9064 114.316 54.7744 114.904 54.5104 115.368C54.2544 115.824 53.9104 116.164 53.4784 116.388C53.0464 116.604 52.5584 116.712 52.0144 116.712ZM52.2424 115.44C52.6184 115.44 52.9544 115.364 53.2504 115.212C53.5464 115.052 53.7744 114.836 53.9344 114.564C54.1024 114.284 54.1864 113.964 54.1864 113.604C54.1864 113.244 54.1024 112.928 53.9344 112.656C53.7744 112.376 53.5464 112.164 53.2504 112.02C52.9544 111.868 52.6184 111.792 52.2424 111.792C51.8664 111.792 51.5264 111.868 51.2224 112.02C50.9264 112.164 50.6944 112.376 50.5264 112.656C50.3664 112.928 50.2864 113.244 50.2864 113.604C50.2864 113.964 50.3664 114.284 50.5264 114.564C50.6944 114.836 50.9264 115.052 51.2224 115.212C51.5264 115.364 51.8664 115.44 52.2424 115.44ZM61.2704 110.52C61.7824 110.52 62.2384 110.62 62.6384 110.82C63.0464 111.02 63.3664 111.328 63.5984 111.744C63.8304 112.152 63.9464 112.68 63.9464 113.328V117H62.4464V113.52C62.4464 112.952 62.3104 112.528 62.0384 112.248C61.7744 111.968 61.4024 111.828 60.9224 111.828C60.5704 111.828 60.2584 111.9 59.9864 112.044C59.7144 112.188 59.5024 112.404 59.3504 112.692C59.2064 112.972 59.1344 113.328 59.1344 113.76V117H57.6344V108.096H59.1344V112.32L58.8104 111.792C59.0344 111.384 59.3584 111.072 59.7824 110.856C60.2144 110.632 60.7104 110.52 61.2704 110.52Z" fill="black"/>
<defs>
<filter id="filter0_b_6_183" x="-25" y="-25" width="150" height="150" filterUnits="userSpaceOnUse" color-interpolation-filters="sRGB">
<feFlood flood-opacity="0" result="BackgroundImageFix"/>
<feGaussianBlur in="BackgroundImageFix" stdDeviation="12.5"/>
<feComposite in2="SourceAlpha" operator="in" result="effect1_backgroundBlur_6_183"/>
<feBlend mode="normal" in="SourceGraphic" in2="effect1_backgroundBlur_6_183" result="shape"/>
</filter>
<filter id="filter1_d_6_183" x="21.5587" y="25.5883" width="56.1438" height="68.2527" filterUnits="userSpaceOnUse" color-interpolation-filters="sRGB">
<feFlood flood-opacity="0" result="BackgroundImageFix"/>
<feColorMatrix in="SourceAlpha" type="matrix" values="0 0 0 0 0 0 0 0 0 0 0 0 0 0 0 0 0 0 127 0" result="hardAlpha"/>
<feOffset dy="4"/>
<feGaussianBlur stdDeviation="2"/>
<feComposite in2="hardAlpha" operator="out"/>
<feColorMatrix type="matrix" values="0 0 0 0 0 0 0 0 0 0 0 0 0 0 0 0 0 0 0.25 0"/>
<feBlend mode="normal" in2="BackgroundImageFix" result="effect1_dropShadow_6_183"/>
<feBlend mode="normal" in="SourceGraphic" in2="effect1_dropShadow_6_183" result="shape"/>
</filter>
<filter id="filter2_d_6_183" x="31.031" y="19.5353" width="37.2" height="75.0553" filterUnits="userSpaceOnUse" color-interpolation-filters="sRGB">
<feFlood flood-opacity="0" result="BackgroundImageFix"/>
<feColorMatrix in="SourceAlpha" type="matrix" values="0 0 0 0 0 0 0 0 0 0 0 0 0 0 0 0 0 0 127 0" result="hardAlpha"/>
<feOffset dy="4"/>
<feGaussianBlur stdDeviation="2"/>
<feComposite in2="hardAlpha" operator="out"/>
<feColorMatrix type="matrix" values="0 0 0 0 0 0 0 0 0 0 0 0 0 0 0 0 0 0 0.25 0"/>
<feBlend mode="normal" in2="BackgroundImageFix" result="effect1_dropShadow_6_183"/>
<feBlend mode="normal" in="SourceGraphic" in2="effect1_dropShadow_6_183" result="shape"/>
</filter>
<filter id="filter3_i_6_183" x="41.3434" y="22.8447" width="16.573" height="20.5731" filterUnits="userSpaceOnUse" color-interpolation-filters="sRGB">
<feFlood flood-opacity="0" result="BackgroundImageFix"/>
<feBlend mode="normal" in="SourceGraphic" in2="BackgroundImageFix" result="shape"/>
<feColorMatrix in="SourceAlpha" type="matrix" values="0 0 0 0 0 0 0 0 0 0 0 0 0 0 0 0 0 0 127 0" result="hardAlpha"/>
<feOffset dy="4"/>
<feGaussianBlur stdDeviation="2"/>
<feComposite in2="hardAlpha" operator="arithmetic" k2="-1" k3="1"/>
<feColorMatrix type="matrix" values="0 0 0 0 0 0 0 0 0 0 0 0 0 0 0 0 0 0 0.25 0"/>
<feBlend mode="normal" in2="shape" result="effect1_innerShadow_6_183"/>
</filter>
<filter id="filter4_d_6_183" x="22.165" y="7.6662" width="54.9307" height="54.9297" filterUnits="userSpaceOnUse" color-interpolation-filters="sRGB">
<feFlood flood-opacity="0" result="BackgroundImageFix"/>
<feColorMatrix in="SourceAlpha" type="matrix" values="0 0 0 0 0 0 0 0 0 0 0 0 0 0 0 0 0 0 127 0" result="hardAlpha"/>
<feOffset dy="4"/>
<feGaussianBlur stdDeviation="10.5"/>
<feComposite in2="hardAlpha" operator="out"/>
<feColorMatrix type="matrix" values="0 0 0 0 0 0 0 0 0 0 0 0 0 0 0 0 0 0 0.25 0"/>
<feBlend mode="normal" in2="BackgroundImageFix" result="effect1_dropShadow_6_183"/>
<feBlend mode="normal" in="SourceGraphic" in2="effect1_dropShadow_6_183" result="shape"/>
</filter>
<filter id="filter5_d_6_183" x="42.9592" y="5.71698" width="42.823" height="21.909" filterUnits="userSpaceOnUse" color-interpolation-filters="sRGB">
<feFlood flood-opacity="0" result="BackgroundImageFix"/>
<feColorMatrix in="SourceAlpha" type="matrix" values="0 0 0 0 0 0 0 0 0 0 0 0 0 0 0 0 0 0 127 0" result="hardAlpha"/>
<feOffset dy="4"/>
<feGaussianBlur stdDeviation="2"/>
<feComposite in2="hardAlpha" operator="out"/>
<feColorMatrix type="matrix" values="0 0 0 0 0 0 0 0 0 0 0 0 0 0 0 0 0 0 0.25 0"/>
<feBlend mode="normal" in2="BackgroundImageFix" result="effect1_dropShadow_6_183"/>
<feBlend mode="normal" in="SourceGraphic" in2="effect1_dropShadow_6_183" result="shape"/>
</filter>
<clipPath id="clip0_6_183">
<rect width="100" height="100" fill="white"/>
</clipPath>
</defs>
</svg>
