<svg width="100" height="123" viewBox="0 0 100 123" fill="none" xmlns="http://www.w3.org/2000/svg">
<g clip-path="url(#clip0_21_20)" filter="url(#filter0_b_21_20)">
<path d="M50 100C77.6142 100 100 77.6142 100 50C100 22.3858 77.6142 0 50 0C22.3858 0 0 22.3858 0 50C0 77.6142 22.3858 100 50 100Z" fill="#11C736"/>
<g filter="url(#filter1_d_21_20)">
<path d="M25.5641 25.5883H39.1287V41.9578C37.3033 33.9656 28.8725 35.2281 27.4264 28.2756C27.2627 27.4859 25.4477 27.4396 25.5641 25.5883ZM25.5641 69.4715H39.1287V85.841C37.3033 77.8488 28.8725 79.1113 27.4264 72.1588C27.2627 71.3681 25.4477 71.3228 25.5641 69.4715ZM73.6971 69.4715H60.1324V85.841C61.9578 77.8488 70.3887 79.1113 71.8348 72.1588C71.9985 71.3681 73.8139 71.3228 73.6971 69.4715ZM25.5641 47.5304H39.1287V63.9C37.3033 55.9078 28.8725 57.1703 27.4264 50.2177C27.2627 49.4279 25.4477 49.3816 25.5641 47.5304ZM73.6971 47.5304H60.1324V63.9C61.9578 55.9078 70.3887 57.1703 71.8348 50.2177C71.9985 49.4279 73.8139 49.3816 73.6971 47.5304ZM73.6971 25.5883H60.1324V41.9578C61.9578 33.9656 70.3887 35.2281 71.8348 28.2756C71.9985 27.4859 73.8139 27.4396 73.6971 25.5883Z" fill="white"/>
</g>
<g filter="url(#filter2_d_21_20)">
<path d="M47.4312 19.5353H51.8308C58.6511 19.5353 64.231 25.1162 64.231 31.9355V83.8914C64.231 85.3762 63.0166 86.5906 61.5318 86.5906H37.7302C36.2455 86.5906 35.031 85.3762 35.031 83.8914V31.9355C35.031 25.1152 40.6119 19.5353 47.4312 19.5353Z" fill="white"/>
</g>
<path d="M50.0776 26C56.1954 26 61.1553 30.9598 61.1553 37.0776C61.1553 43.1954 56.1954 48.1553 50.0776 48.1553C43.9598 48.1553 39 43.1954 39 37.0776C39 30.9598 43.9593 26 50.0776 26Z" fill="#ECF0F1"/>
<g filter="url(#filter3_i_21_20)">
<path d="M50.0775 28.435C54.8504 28.435 58.7212 32.3045 58.7212 37.0774C58.7212 41.8502 54.8517 45.7197 50.0775 45.7197C45.3047 45.7197 41.4352 41.8502 41.4352 37.0774C41.4352 32.3045 45.3044 28.435 50.0775 28.435Z" fill="#BA2127" fill-opacity="0.05"/>
</g>
<g filter="url(#filter4_i_21_20)">
<path d="M50.1409 61C56.2936 61 61.2818 65.9881 61.2818 72.1396C61.2818 78.2936 56.2936 83.2804 50.1409 83.2804C43.9881 83.2804 39 78.2936 39 72.1396C38.9997 65.9868 43.9876 61 50.1409 61Z" fill="#ECF0F1"/>
</g>
<path d="M50.1409 63.4479C54.9411 63.4479 58.8339 67.3395 58.8339 72.1409C58.8339 76.941 54.9424 80.8326 50.1409 80.8326C45.3408 80.8326 41.4492 76.941 41.4492 72.1409C41.4492 67.3408 45.3405 63.4479 50.1409 63.4479Z" fill="#11C736"/>
<g filter="url(#filter5_d_21_20)">
<path d="M49.0069 5.71699H52.5383H73.2317C76.2807 7.32031 79.145 9.22539 81.7823 11.3986H53.1528C52.8149 11.3986 52.5381 11.6754 52.5381 12.0133V19.626H46.9592V10.5184V7.76543C46.9592 6.63691 47.8784 5.71699 49.0069 5.71699Z" fill="#ECF0F1"/>
</g>
<path d="M81.7809 11.3987H53.1518C52.8139 11.3987 52.5371 11.6754 52.5371 12.0133V19.626H51.4791V11.4727C51.4791 10.909 51.9401 10.4479 52.5039 10.4479H80.5877C80.9905 10.76 81.3885 11.0746 81.7809 11.3987Z" fill="#C9CACC"/>
</g>
<path d="M38.2725 117V108.6H39.8325V115.68H44.2245V117H38.2725ZM48.1335 117.084C47.4775 117.084 46.8935 116.944 46.3815 116.664C45.8695 116.376 45.4655 115.984 45.1695 115.488C44.8735 114.992 44.7255 114.428 44.7255 113.796C44.7255 113.156 44.8735 112.592 45.1695 112.104C45.4655 111.608 45.8695 111.22 46.3815 110.94C46.8935 110.66 47.4775 110.52 48.1335 110.52C48.7975 110.52 49.3855 110.66 49.8975 110.94C50.4175 111.22 50.8215 111.604 51.1095 112.092C51.4055 112.58 51.5535 113.148 51.5535 113.796C51.5535 114.428 51.4055 114.992 51.1095 115.488C50.8215 115.984 50.4175 116.376 49.8975 116.664C49.3855 116.944 48.7975 117.084 48.1335 117.084ZM48.1335 115.8C48.5015 115.8 48.8295 115.72 49.1175 115.56C49.4055 115.4 49.6295 115.168 49.7895 114.864C49.9575 114.56 50.0415 114.204 50.0415 113.796C50.0415 113.38 49.9575 113.024 49.7895 112.728C49.6295 112.424 49.4055 112.192 49.1175 112.032C48.8295 111.872 48.5055 111.792 48.1455 111.792C47.7775 111.792 47.4495 111.872 47.1615 112.032C46.8815 112.192 46.6575 112.424 46.4895 112.728C46.3215 113.024 46.2375 113.38 46.2375 113.796C46.2375 114.204 46.3215 114.56 46.4895 114.864C46.6575 115.168 46.8815 115.4 47.1615 115.56C47.4495 115.72 47.7735 115.8 48.1335 115.8ZM54.2281 117L51.8761 110.592H53.2921L55.3081 116.244H54.6361L56.7481 110.592H58.0081L60.0601 116.244H59.4001L61.4761 110.592H62.8081L60.4441 117H59.0041L57.1321 111.996H57.5761L55.6681 117H54.2281Z" fill="black"/>
<defs>
<filter id="filter0_b_21_20" x="-25" y="-25" width="150" height="150" filterUnits="userSpaceOnUse" color-interpolation-filters="sRGB">
<feFlood flood-opacity="0" result="BackgroundImageFix"/>
<feGaussianBlur in="BackgroundImageFix" stdDeviation="12.5"/>
<feComposite in2="SourceAlpha" operator="in" result="effect1_backgroundBlur_21_20"/>
<feBlend mode="normal" in="SourceGraphic" in2="effect1_backgroundBlur_21_20" result="shape"/>
</filter>
<filter id="filter1_d_21_20" x="21.5587" y="25.5883" width="56.1438" height="68.2527" filterUnits="userSpaceOnUse" color-interpolation-filters="sRGB">
<feFlood flood-opacity="0" result="BackgroundImageFix"/>
<feColorMatrix in="SourceAlpha" type="matrix" values="0 0 0 0 0 0 0 0 0 0 0 0 0 0 0 0 0 0 127 0" result="hardAlpha"/>
<feOffset dy="4"/>
<feGaussianBlur stdDeviation="2"/>
<feComposite in2="hardAlpha" operator="out"/>
<feColorMatrix type="matrix" values="0 0 0 0 0 0 0 0 0 0 0 0 0 0 0 0 0 0 0.25 0"/>
<feBlend mode="normal" in2="BackgroundImageFix" result="effect1_dropShadow_21_20"/>
<feBlend mode="normal" in="SourceGraphic" in2="effect1_dropShadow_21_20" result="shape"/>
</filter>
<filter id="filter2_d_21_20" x="31.031" y="19.5353" width="37.2" height="75.0553" filterUnits="userSpaceOnUse" color-interpolation-filters="sRGB">
<feFlood flood-opacity="0" result="BackgroundImageFix"/>
<feColorMatrix in="SourceAlpha" type="matrix" values="0 0 0 0 0 0 0 0 0 0 0 0 0 0 0 0 0 0 127 0" result="hardAlpha"/>
<feOffset dy="4"/>
<feGaussianBlur stdDeviation="2"/>
<feComposite in2="hardAlpha" operator="out"/>
<feColorMatrix type="matrix" values="0 0 0 0 0 0 0 0 0 0 0 0 0 0 0 0 0 0 0.25 0"/>
<feBlend mode="normal" in2="BackgroundImageFix" result="effect1_dropShadow_21_20"/>
<feBlend mode="normal" in="SourceGraphic" in2="effect1_dropShadow_21_20" result="shape"/>
</filter>
<filter id="filter3_i_21_20" x="41.4352" y="28.435" width="17.286" height="21.2847" filterUnits="userSpaceOnUse" color-interpolation-filters="sRGB">
<feFlood flood-opacity="0" result="BackgroundImageFix"/>
<feBlend mode="normal" in="SourceGraphic" in2="BackgroundImageFix" result="shape"/>
<feColorMatrix in="SourceAlpha" type="matrix" values="0 0 0 0 0 0 0 0 0 0 0 0 0 0 0 0 0 0 127 0" result="hardAlpha"/>
<feOffset dy="4"/>
<feGaussianBlur stdDeviation="2"/>
<feComposite in2="hardAlpha" operator="arithmetic" k2="-1" k3="1"/>
<feColorMatrix type="matrix" values="0 0 0 0 0 0 0 0 0 0 0 0 0 0 0 0 0 0 0.25 0"/>
<feBlend mode="normal" in2="shape" result="effect1_innerShadow_21_20"/>
</filter>
<filter id="filter4_i_21_20" x="39" y="61" width="22.2817" height="27.6583" filterUnits="userSpaceOnUse" color-interpolation-filters="sRGB">
<feFlood flood-opacity="0" result="BackgroundImageFix"/>
<feBlend mode="normal" in="SourceGraphic" in2="BackgroundImageFix" result="shape"/>
<feColorMatrix in="SourceAlpha" type="matrix" values="0 0 0 0 0 0 0 0 0 0 0 0 0 0 0 0 0 0 127 0" result="hardAlpha"/>
<feOffset dy="5.37783"/>
<feGaussianBlur stdDeviation="2.68891"/>
<feComposite in2="hardAlpha" operator="arithmetic" k2="-1" k3="1"/>
<feColorMatrix type="matrix" values="0 0 0 0 0 0 0 0 0 0 0 0 0 0 0 0 0 0 0.25 0"/>
<feBlend mode="normal" in2="shape" result="effect1_innerShadow_21_20"/>
</filter>
<filter id="filter5_d_21_20" x="42.9592" y="5.71698" width="42.823" height="21.909" filterUnits="userSpaceOnUse" color-interpolation-filters="sRGB">
<feFlood flood-opacity="0" result="BackgroundImageFix"/>
<feColorMatrix in="SourceAlpha" type="matrix" values="0 0 0 0 0 0 0 0 0 0 0 0 0 0 0 0 0 0 127 0" result="hardAlpha"/>
<feOffset dy="4"/>
<feGaussianBlur stdDeviation="2"/>
<feComposite in2="hardAlpha" operator="out"/>
<feColorMatrix type="matrix" values="0 0 0 0 0 0 0 0 0 0 0 0 0 0 0 0 0 0 0.25 0"/>
<feBlend mode="normal" in2="BackgroundImageFix" result="effect1_dropShadow_21_20"/>
<feBlend mode="normal" in="SourceGraphic" in2="effect1_dropShadow_21_20" result="shape"/>
</filter>
<clipPath id="clip0_21_20">
<rect width="100" height="100" fill="white"/>
</clipPath>
</defs>
</svg>
