<svg width="100" height="123" viewBox="0 0 100 123" fill="none" xmlns="http://www.w3.org/2000/svg">
<g clip-path="url(#clip0_8_219)" filter="url(#filter0_b_8_219)">
<path d="M50 100C77.6142 100 100 77.6142 100 50C100 22.3858 77.6142 0 50 0C22.3858 0 0 22.3858 0 50C0 77.6142 22.3858 100 50 100Z" fill="#E3B313"/>
<g filter="url(#filter1_d_8_219)">
<path d="M25.5641 25.5883H39.1287V41.9578C37.3033 33.9656 28.8725 35.2281 27.4264 28.2756C27.2627 27.4859 25.4477 27.4396 25.5641 25.5883ZM25.5641 69.4715H39.1287V85.841C37.3033 77.8488 28.8725 79.1113 27.4264 72.1588C27.2627 71.3681 25.4477 71.3228 25.5641 69.4715ZM73.6971 69.4715H60.1324V85.841C61.9578 77.8488 70.3887 79.1113 71.8348 72.1588C71.9985 71.3681 73.8139 71.3228 73.6971 69.4715ZM25.5641 47.5304H39.1287V63.9C37.3033 55.9078 28.8725 57.1703 27.4264 50.2177C27.2627 49.4279 25.4477 49.3816 25.5641 47.5304ZM73.6971 47.5304H60.1324V63.9C61.9578 55.9078 70.3887 57.1703 71.8348 50.2177C71.9985 49.4279 73.8139 49.3816 73.6971 47.5304ZM73.6971 25.5883H60.1324V41.9578C61.9578 33.9656 70.3887 35.2281 71.8348 28.2756C71.9985 27.4859 73.8139 27.4396 73.6971 25.5883Z" fill="white"/>
</g>
<g filter="url(#filter2_d_8_219)">
<path d="M47.4313 19.5353H51.8309C58.6512 19.5353 64.2311 25.1162 64.2311 31.9355V83.8914C64.2311 85.3762 63.0166 86.5906 61.5318 86.5906H37.7303C36.2455 86.5906 35.0311 85.3762 35.0311 83.8914V31.9355C35.0311 25.1152 40.6119 19.5353 47.4313 19.5353Z" fill="white"/>
</g>
<g filter="url(#filter3_i_8_219)">
<path d="M49.6299 44.7764C54.2063 44.7764 57.9164 48.4865 57.9164 53.0629C57.9164 57.6393 54.2063 61.3494 49.6299 61.3494C45.0535 61.3494 41.3434 57.6393 41.3434 53.0629C41.3434 48.4865 45.0531 44.7764 49.6299 44.7764Z" fill="#ECF0F1"/>
</g>
<path d="M49.6299 22.8447C54.2063 22.8447 57.9164 26.5549 57.9164 31.1313C57.9164 35.7076 54.2063 39.4178 49.6299 39.4178C45.0535 39.4178 41.3434 35.7076 41.3434 31.1313C41.3434 26.5549 45.0531 22.8447 49.6299 22.8447Z" fill="#ECF0F1"/>
<path d="M49.6299 24.6662C53.2002 24.6662 56.0957 27.5607 56.0957 31.131C56.0957 34.7014 53.2012 37.5959 49.6299 37.5959C46.0596 37.5959 43.165 34.7014 43.165 31.131C43.165 27.5607 46.0594 24.6662 49.6299 24.6662Z" fill="#BA2127" fill-opacity="0.1"/>
<path d="M49.6299 46.5973C53.2002 46.5973 56.0957 49.4918 56.0957 53.0631C56.0957 56.6334 53.2012 59.528 49.6299 59.528C46.0596 59.528 43.165 56.6334 43.165 53.0631C43.1648 49.4928 46.0594 46.5973 49.6299 46.5973Z" fill="#E3B313"/>
<path d="M49.6299 66.7084C54.2063 66.7084 57.9164 70.4185 57.9164 74.9939C57.9164 79.5713 54.2063 83.2804 49.6299 83.2804C45.0535 83.2804 41.3434 79.5713 41.3434 74.9939C41.3432 70.4176 45.0531 66.7084 49.6299 66.7084Z" fill="#ECF0F1"/>
<path d="M49.6299 68.5291C53.2002 68.5291 56.0957 71.4236 56.0957 74.9949C56.0957 78.5652 53.2012 81.4598 49.6299 81.4598C46.0596 81.4598 43.165 78.5652 43.165 74.9949C43.165 71.4246 46.0594 68.5291 49.6299 68.5291Z" fill="#11C736" fill-opacity="0.1"/>
<g filter="url(#filter4_d_8_219)">
<path d="M49.0068 5.71699H52.5383H73.2316C76.2807 7.32031 79.1449 9.22539 81.7822 11.3986H53.1527C52.8148 11.3986 52.5381 11.6754 52.5381 12.0133V19.626H46.9592V10.5184V7.76543C46.9592 6.63691 47.8783 5.71699 49.0068 5.71699Z" fill="#ECF0F1"/>
</g>
<path d="M81.7809 11.3987H53.1518C52.8139 11.3987 52.5371 11.6754 52.5371 12.0133V19.626H51.4791V11.4727C51.4791 10.909 51.9401 10.4479 52.5039 10.4479H80.5877C80.9905 10.76 81.3885 11.0746 81.7809 11.3987Z" fill="#C9CACC"/>
<path d="M64.2301 41.883H35.0293V42.2514H64.2301V41.883Z" fill="#ECF0F1"/>
<path d="M64.2047 63.5887H35.0584V63.957H64.2047V63.5887Z" fill="#ECF0F1"/>
</g>
<path d="M25.4112 117V108.6H26.6952L30.3672 114.732H29.6952L33.3072 108.6H34.5912L34.6032 117H33.1272L33.1152 110.916H33.4272L30.3552 116.04H29.6592L26.5392 110.916H26.8992V117H25.4112ZM39.7401 117.084C39.0281 117.084 38.4041 116.944 37.8681 116.664C37.3401 116.376 36.9281 115.984 36.6321 115.488C36.3441 114.992 36.2001 114.428 36.2001 113.796C36.2001 113.156 36.3401 112.592 36.6201 112.104C36.9081 111.608 37.3001 111.22 37.7961 110.94C38.3001 110.66 38.8721 110.52 39.5121 110.52C40.1361 110.52 40.6921 110.656 41.1801 110.928C41.6681 111.2 42.0521 111.584 42.3321 112.08C42.6121 112.576 42.7521 113.16 42.7521 113.832C42.7521 113.896 42.7481 113.968 42.7401 114.048C42.7401 114.128 42.7361 114.204 42.7281 114.276H37.3881V113.28H41.9361L41.3481 113.592C41.3561 113.224 41.2801 112.9 41.1201 112.62C40.9601 112.34 40.7401 112.12 40.4601 111.96C40.1881 111.8 39.8721 111.72 39.5121 111.72C39.1441 111.72 38.8201 111.8 38.5401 111.96C38.2681 112.12 38.0521 112.344 37.8921 112.632C37.7401 112.912 37.6641 113.244 37.6641 113.628V113.868C37.6641 114.252 37.7521 114.592 37.9281 114.888C38.1041 115.184 38.3521 115.412 38.6721 115.572C38.9921 115.732 39.3601 115.812 39.7761 115.812C40.1361 115.812 40.4601 115.756 40.7481 115.644C41.0361 115.532 41.2921 115.356 41.5161 115.116L42.3201 116.04C42.0321 116.376 41.6681 116.636 41.2281 116.82C40.7961 116.996 40.3001 117.084 39.7401 117.084ZM46.905 117.084C46.289 117.084 45.733 116.948 45.237 116.676C44.749 116.396 44.365 116.012 44.085 115.524C43.805 115.036 43.665 114.46 43.665 113.796C43.665 113.132 43.805 112.556 44.085 112.068C44.365 111.58 44.749 111.2 45.237 110.928C45.733 110.656 46.289 110.52 46.905 110.52C47.441 110.52 47.921 110.64 48.345 110.88C48.769 111.112 49.105 111.468 49.353 111.948C49.601 112.428 49.725 113.044 49.725 113.796C49.725 114.54 49.605 115.156 49.365 115.644C49.125 116.124 48.793 116.484 48.369 116.724C47.945 116.964 47.457 117.084 46.905 117.084ZM47.085 115.8C47.445 115.8 47.765 115.72 48.045 115.56C48.333 115.4 48.561 115.168 48.729 114.864C48.905 114.56 48.993 114.204 48.993 113.796C48.993 113.38 48.905 113.024 48.729 112.728C48.561 112.424 48.333 112.192 48.045 112.032C47.765 111.872 47.445 111.792 47.085 111.792C46.725 111.792 46.401 111.872 46.113 112.032C45.833 112.192 45.605 112.424 45.429 112.728C45.261 113.024 45.177 113.38 45.177 113.796C45.177 114.204 45.261 114.56 45.429 114.864C45.605 115.168 45.833 115.4 46.113 115.56C46.401 115.72 46.725 115.8 47.085 115.8ZM49.029 117V115.488L49.089 113.784L48.969 112.08V108.096H50.457V117H49.029ZM52.4313 117V110.592H53.9313V117H52.4313ZM53.1873 109.536C52.9073 109.536 52.6753 109.448 52.4913 109.272C52.3153 109.096 52.2273 108.884 52.2273 108.636C52.2273 108.38 52.3153 108.168 52.4913 108C52.6753 107.824 52.9073 107.736 53.1873 107.736C53.4673 107.736 53.6953 107.82 53.8713 107.988C54.0553 108.148 54.1473 108.352 54.1473 108.6C54.1473 108.864 54.0593 109.088 53.8833 109.272C53.7073 109.448 53.4753 109.536 53.1873 109.536ZM58.612 117.084C58.068 117.084 57.588 116.984 57.172 116.784C56.756 116.576 56.432 116.264 56.2 115.848C55.968 115.424 55.852 114.892 55.852 114.252V110.592H57.352V114.048C57.352 114.624 57.48 115.056 57.736 115.344C58 115.624 58.372 115.764 58.852 115.764C59.204 115.764 59.508 115.692 59.764 115.548C60.028 115.404 60.232 115.188 60.376 114.9C60.528 114.612 60.604 114.256 60.604 113.832V110.592H62.104V117H60.676V115.272L60.928 115.8C60.712 116.216 60.396 116.536 59.98 116.76C59.564 116.976 59.108 117.084 58.612 117.084ZM72.156 110.52C72.668 110.52 73.12 110.62 73.512 110.82C73.912 111.02 74.224 111.328 74.448 111.744C74.672 112.152 74.784 112.68 74.784 113.328V117H73.284V113.52C73.284 112.952 73.16 112.528 72.912 112.248C72.664 111.968 72.308 111.828 71.844 111.828C71.516 111.828 71.224 111.9 70.968 112.044C70.72 112.188 70.524 112.4 70.38 112.68C70.244 112.96 70.176 113.316 70.176 113.748V117H68.676V113.52C68.676 112.952 68.552 112.528 68.304 112.248C68.056 111.968 67.7 111.828 67.236 111.828C66.908 111.828 66.616 111.9 66.36 112.044C66.112 112.188 65.916 112.4 65.772 112.68C65.636 112.96 65.568 113.316 65.568 113.748V117H64.068V110.592H65.496V112.296L65.244 111.792C65.46 111.376 65.772 111.06 66.18 110.844C66.596 110.628 67.068 110.52 67.596 110.52C68.196 110.52 68.716 110.668 69.156 110.964C69.604 111.26 69.9 111.708 70.044 112.308L69.456 112.104C69.664 111.624 70.008 111.24 70.488 110.952C70.968 110.664 71.524 110.52 72.156 110.52Z" fill="black"/>
<defs>
<filter id="filter0_b_8_219" x="-25" y="-25" width="150" height="150" filterUnits="userSpaceOnUse" color-interpolation-filters="sRGB">
<feFlood flood-opacity="0" result="BackgroundImageFix"/>
<feGaussianBlur in="BackgroundImageFix" stdDeviation="12.5"/>
<feComposite in2="SourceAlpha" operator="in" result="effect1_backgroundBlur_8_219"/>
<feBlend mode="normal" in="SourceGraphic" in2="effect1_backgroundBlur_8_219" result="shape"/>
</filter>
<filter id="filter1_d_8_219" x="21.5587" y="25.5883" width="56.1438" height="68.2527" filterUnits="userSpaceOnUse" color-interpolation-filters="sRGB">
<feFlood flood-opacity="0" result="BackgroundImageFix"/>
<feColorMatrix in="SourceAlpha" type="matrix" values="0 0 0 0 0 0 0 0 0 0 0 0 0 0 0 0 0 0 127 0" result="hardAlpha"/>
<feOffset dy="4"/>
<feGaussianBlur stdDeviation="2"/>
<feComposite in2="hardAlpha" operator="out"/>
<feColorMatrix type="matrix" values="0 0 0 0 0 0 0 0 0 0 0 0 0 0 0 0 0 0 0.25 0"/>
<feBlend mode="normal" in2="BackgroundImageFix" result="effect1_dropShadow_8_219"/>
<feBlend mode="normal" in="SourceGraphic" in2="effect1_dropShadow_8_219" result="shape"/>
</filter>
<filter id="filter2_d_8_219" x="31.0311" y="19.5353" width="37.2" height="75.0553" filterUnits="userSpaceOnUse" color-interpolation-filters="sRGB">
<feFlood flood-opacity="0" result="BackgroundImageFix"/>
<feColorMatrix in="SourceAlpha" type="matrix" values="0 0 0 0 0 0 0 0 0 0 0 0 0 0 0 0 0 0 127 0" result="hardAlpha"/>
<feOffset dy="4"/>
<feGaussianBlur stdDeviation="2"/>
<feComposite in2="hardAlpha" operator="out"/>
<feColorMatrix type="matrix" values="0 0 0 0 0 0 0 0 0 0 0 0 0 0 0 0 0 0 0.25 0"/>
<feBlend mode="normal" in2="BackgroundImageFix" result="effect1_dropShadow_8_219"/>
<feBlend mode="normal" in="SourceGraphic" in2="effect1_dropShadow_8_219" result="shape"/>
</filter>
<filter id="filter3_i_8_219" x="41.3434" y="44.7764" width="16.5731" height="20.5731" filterUnits="userSpaceOnUse" color-interpolation-filters="sRGB">
<feFlood flood-opacity="0" result="BackgroundImageFix"/>
<feBlend mode="normal" in="SourceGraphic" in2="BackgroundImageFix" result="shape"/>
<feColorMatrix in="SourceAlpha" type="matrix" values="0 0 0 0 0 0 0 0 0 0 0 0 0 0 0 0 0 0 127 0" result="hardAlpha"/>
<feOffset dy="4"/>
<feGaussianBlur stdDeviation="2"/>
<feComposite in2="hardAlpha" operator="arithmetic" k2="-1" k3="1"/>
<feColorMatrix type="matrix" values="0 0 0 0 0 0 0 0 0 0 0 0 0 0 0 0 0 0 0.25 0"/>
<feBlend mode="normal" in2="shape" result="effect1_innerShadow_8_219"/>
</filter>
<filter id="filter4_d_8_219" x="42.9592" y="5.71698" width="42.8231" height="21.909" filterUnits="userSpaceOnUse" color-interpolation-filters="sRGB">
<feFlood flood-opacity="0" result="BackgroundImageFix"/>
<feColorMatrix in="SourceAlpha" type="matrix" values="0 0 0 0 0 0 0 0 0 0 0 0 0 0 0 0 0 0 127 0" result="hardAlpha"/>
<feOffset dy="4"/>
<feGaussianBlur stdDeviation="2"/>
<feComposite in2="hardAlpha" operator="out"/>
<feColorMatrix type="matrix" values="0 0 0 0 0 0 0 0 0 0 0 0 0 0 0 0 0 0 0.25 0"/>
<feBlend mode="normal" in2="BackgroundImageFix" result="effect1_dropShadow_8_219"/>
<feBlend mode="normal" in="SourceGraphic" in2="effect1_dropShadow_8_219" result="shape"/>
</filter>
<clipPath id="clip0_8_219">
<rect width="100" height="100" fill="white"/>
</clipPath>
</defs>
</svg>
